PathFileType	4	(X/Y/Z)	34_2_81_p0_0-729.trc
DataRate	CameraRate	NumFrames	NumMarkers	Units	OrigDataRate	OrigDataStartFrame	OrigNumFrames
59.0	59.0	5	27	m	59.0	365	730
Frame#	Time	RHip			RKnee			RAnkle			RBigToe			RSmallToe			RHeel			LHip			LKnee			LAnkle			LBigToe			LSmallToe			LHeel			Neck			Head			Nose			RShoulder			RElbow			RWrist			RThumb			RIndex			RPinky			LShoulder			LElbow			LWrist			LThumb			LIndex			LPinky			
		X1	Y1	Z1	X2	Y2	Z2	X3	Y3	Z3	X4	Y4	Z4	X5	Y5	Z5	X6	Y6	Z6	X7	Y7	Z7	X8	Y8	Z8	X9	Y9	Z9	X10	Y10	Z10	X11	Y11	Z11	X12	Y12	Z12	X13	Y13	Z13	X14	Y14	Z14	X15	Y15	Z15	X16	Y16	Z16	X17	Y17	Z17	X18	Y18	Z18	X19	Y19	Z19	X20	Y20	Z20	X21	Y21	Z21	X22	Y22	Z22	X23	Y23	Z23	X24	Y24	Z24	X25	Y25	Z25	X26	Y26	Z26	X27	Y27	Z27	
365	6.186440677966102	0.33129511706742687	0.4776009290387021	1.0050453733929887	0.3400583222552444	0.5685467149287547	1.3824096444185652	0.36774209377764944	0.6774877598157207	1.733705492733449	0.3351417996497182	0.5419201345090335	1.7725728659902251	0.4045956299498424	0.570783507203302	1.7837061643744831	0.357545102401871	0.8075592109986399	1.8175801170050407	0.1593223728486146	0.5664724432427535	1.0147861539603145	0.1604227210137652	0.6515932803067627	1.4111444345100264	0.17190026621709148	0.746122279978513	1.7577241886151502	0.1849864493907754	0.5248756240938189	1.7490293129602974	0.13405449978315545	0.6128463055411765	1.7735029413496073	0.18964190537228234	0.7813270439704099	1.792810936835115	0.23150301217626662	0.4639475348109973	0.5738939997494442	0.05885564222605737	0.40925849080511456	0.3875449353528736	0.11545948617624209	0.3894842932137755	0.5410677568973477	0.36027940072115033	0.4336169586003468	0.5777216333516778	0.3672204627627381	0.3020181795709462	0.7793574064344273	0.22168293593878088	0.2222185500505491	0.6775175844252845	0.13223078328467688	0.23038099742796833	0.6710846487575854	0.10265593088914188	0.2011427411980184	0.6875474887872634	0.1304624951474042	0.20317469675541355	0.7166303975337045	0.1196627534530794	0.5649971013598948	0.6250995306519908	0.08381137510453208	0.5721872854628006	0.7838499269629633	0.06664260701027118	0.43328535016189096	0.8860449402821476	0.08870175342541821	0.35152888969219476	0.8820349556936533	0.07029333932366753	0.3343657259280627	0.9104061727165524	0.06574618589424572	0.34264601211930606	0.962514570227405
366	6.203389830508475	0.33114745197028217	0.4777344720365671	1.0052334422383602	0.33923796591488414	0.5698212238126893	1.3870046602479698	0.36773902119210405	0.6773762923124561	1.733661150364406	0.3381211923666203	0.5551596608074797	1.7773448341373976	0.4052849912989305	0.5692783946579483	1.779427038146042	0.35678882927576694	0.8022812372616704	1.8156827800342676	0.15856763912106106	0.5679534773258075	1.0186412830508935	0.1595665922952219	0.6530834098778849	1.4154060382552445	0.1718506399027193	0.7460477791959905	1.7576076048084204	0.18024072144078	0.5395849810002898	1.7546101492255843	0.13377658200847006	0.6136194399935487	1.7733177967895486	0.1895883125763882	0.7809996812199637	1.79251411391755	0.23487739679720218	0.4764910161506522	0.5734021171723126	0.05423527468136608	0.40957332876212077	0.3901471690831765	0.11600520080742296	0.3901899569517647	0.5485872329312128	0.3562660956865553	0.4302784422994318	0.5739713796983662	0.36696111138039295	0.3038273563585983	0.7833023969245518	0.219740639688739	0.21496038608615198	0.6960525610413762	0.12269121043794237	0.22492739155063324	0.7142949219576749	0.10116529091757202	0.21156588914297947	0.7322337495290315	0.13169421527724906	0.2077620268402707	0.7704429198057756	0.1266589666890709	0.5817144987345902	0.6202531173594731	0.08887990640934104	0.6011467622622483	0.7863730389128983	0.07859951019028487	0.42181901897041985	0.8883938481384145	0.10366156113601831	0.3582667812651393	0.8963105776074197	0.0728718379472567	0.34547652059134526	0.9242186825820624	0.06626356159582748	0.34524122605222674	0.9705109209166243
367	6.220338983050848	0.33049516116646926	0.4789735584785755	1.0092637629160326	0.33838985788131454	0.5712676047997937	1.3913323860193914	0.367778863577182	0.6775985587883575	1.7337446322207648	0.338444879486113	0.555648638613692	1.777612071647265	0.4081389362445115	0.5845970765855345	1.7887205539442554	0.356812004104604	0.8025278997677366	1.8157659136528472	0.16286338392873906	0.5706427730277438	1.019194556399859	0.15951329449540577	0.6531283069461783	1.4155808793828522	0.1718832620670434	0.7458967721120014	1.7576285052537313	0.18499662685766216	0.525226586976266	1.7490458651076544	0.133901922560739	0.613098047766995	1.7732328014404297	0.18960136199084654	0.7809189627334188	1.7925564208467708	0.23491746698978178	0.47721019025620054	0.5730281281279005	0.054154056409945715	0.40887189416700037	0.3902033269428887	0.11568977113752785	0.3913860445415362	0.5518841215790244	0.35601863853345855	0.43482878346251913	0.5851515107623431	0.3749771803970776	0.31573054358816477	0.7873948485715756	0.2020792240962542	0.21155652078648615	0.7503733827269382	0.1013291176516245	0.2166509548477061	0.7393472518343029	0.09800083682118474	0.21807835614332963	0.773363567534223	0.1116687603124322	0.20163957589682077	0.7977638806340004	0.13617128693494196	0.5713683318623377	0.6198842473628791	0.0961507524948876	0.6360968967926725	0.8072505388356287	0.0803109868607056	0.4398042760409746	0.901414908940599	0.12764246083124706	0.3311022274813204	0.9170327166647804	0.09817399355861504	0.3323094411550425	0.9554987196033816	0.07364711783490112	0.34910138945890073	0.9787017576236917
368	6.237288135593221	0.3262312178224127	0.49363133100033096	1.007663734960383	0.33839172709266707	0.5713613937038532	1.391400389284169	0.36783001980641034	0.6774995805911249	1.7337682359584798	0.33838979101281197	0.5558398983644433	1.777669159534598	0.4081252308739879	0.5847221847548847	1.7888048252120954	0.36152179140392243	0.7840270319436282	1.8090028442432746	0.16273364758134112	0.570862303584822	1.0190953421509432	0.15969924062600413	0.6531803951730766	1.415421244297148	0.17195577299098863	0.746102405016294	1.757721981145765	0.18026643592318312	0.539747685376406	1.7546083679479851	0.1337566651976387	0.6138571854956315	1.7732640067046013	0.19447520019941533	0.7849985785063016	1.7939137535839247	0.235365791738752	0.47748082954507465	0.5686583417255137	0.0583836047932158	0.4101103311484774	0.3897409301346039	0.1157940118887186	0.39164663360242785	0.5519605552655814	0.35681187545274945	0.4370634744559197	0.5927549859735333	0.3745963479707948	0.31700083837179927	0.7911826270362369	0.19371488420645921	0.2075215657421316	0.7761890571996344	0.0894151672354519	0.24404993036299433	0.7741360784204874	0.08617027664510796	0.2355966526689339	0.7970080748559817	0.11750499106196563	0.21307725930404292	0.8404486006004972	0.12794623140070685	0.5667459964885788	0.6240252608561176	0.09753398970387575	0.6236090215415964	0.8079150357639556	0.09562118912228078	0.43396425653285364	0.9200779587886421	0.12477166537893017	0.3329484942566465	0.9251572868958077	0.112655008747045	0.32087428110096483	0.9613473115556028	0.08566991682700204	0.34883589980299173	0.9830882616669936
369	6.254237288135593	0.33056497777379945	0.47899318202572555	1.0094172511288146	0.3383481982137945	0.5714132482568208	1.3913970091572678	0.36781882791930387	0.6776077713002128	1.7337879915492356	0.33835644965181866	0.5555629807303614	1.7776312179977478	0.4080466364473834	0.5846054954039961	1.7887509170215523	0.366228743956323	0.7862481626103099	1.8093949719368845	0.1620494318495752	0.5686248244333594	1.0143889873851457	0.1597165259013231	0.6532202875440996	1.4152683165881885	0.17196403079829822	0.7460544180510251	1.757686142427652	0.18020666186280657	0.5397379308385282	1.7544422533391166	0.13365922956938828	0.6139127333375555	1.7731021052283205	0.18967691922480756	0.7808020180554057	1.7925261862486805	0.23521607480765885	0.47775358584834265	0.5684997280512154	0.06273936162094532	0.4109492758562058	0.38944739319526656	0.11558075285023378	0.3919226863672017	0.555311899111102	0.35282998527727705	0.4374934523569517	0.6042606879768059	0.3762145498562948	0.3200063844004212	0.7958584742531593	0.19031665145426918	0.19760492041310007	0.7873764419035887	0.08803593556824972	0.24963741668396905	0.8050341165260471	0.08343104922364683	0.24610490255643055	0.8486576507865115	0.10541169553058301	0.22339693499257623	0.8723256754379507	0.12234128143281825	0.5793085300725128	0.6202468904504037	0.08754155170299496	0.5731498467751613	0.8008386685892884	0.11178060337825367	0.4221729950580643	0.9175053171850812	0.12019661359875647	0.3249115941647736	0.9320223818792585	0.1179736941238575	0.3154488090158963	0.9578824189876849	0.10487797128403009	0.3003307680763188	0.9762316900748029
